<?xml version="1.0" standalone="no"?><!DOCTYPE svg PUBLIC "-//W3C//DTD SVG 1.1//EN" "http://www.w3.org/Graphics/SVG/1.1/DTD/svg11.dtd"><svg t="1593593391039" class="icon" viewBox="0 0 1024 1024" version="1.1" xmlns="http://www.w3.org/2000/svg" p-id="18221" xmlns:xlink="http://www.w3.org/1999/xlink" width="200" height="200"><defs><style type="text/css"></style></defs><path d="M1023.751846 947.207863a76.788827 76.788827 0 0 1-76.787827 76.788827H639.979711a76.788827 76.788827 0 0 1-16.231963-151.806658l90.354796-158.163643a127.980711 127.980711 0 1 1 158.653642 0.15l90.204797 157.842644a76.659827 76.659827 0 0 1 60.790863 75.18883zM639.809712 972.803805h307.154307a25.595942 25.595942 0 0 0 0-51.191884H639.979711a25.595942 25.595942 0 0 0 0 51.191884zM793.386365 537.668787a76.788827 76.788827 0 1 0 76.788827 76.788827 76.788827 76.788827 0 0 0-76.745827-76.937827z m0 204.769538a127.042713 127.042713 0 0 1-33.871923-5.119988l-76.020829 133.100699h219.509505l-75.999829-133.014699a126.956714 126.956714 0 0 1-33.573924 5.012988z m51.192885-358.346191c-14.312968 0-33.979923-7.059984-33.979924-21.329952V127.979711a56.695872 56.695872 0 0 0-63.989855-63.989855H128.056866a56.695872 56.695872 0 0 0-63.989856 63.989855v767.885268a56.695872 56.695872 0 0 0 63.989856 63.989856h341.28223c14.333968 0 17.063962 24.209945 17.063962 38.543913A25.339943 25.339943 0 0 1 460.807115 1023.99769H128.056866A127.980711 127.980711 0 0 1 0.076155 896.015979V127.979711A127.980711 127.980711 0 0 1 128.055866 0H742.259481c70.644841 0 132.374701 35.983919 132.374701 106.650759v255.961423a26.320941 26.320941 0 0 1-30.032932 21.329952z m-690.968442 409.539076a25.339943 25.339943 0 0 1 25.595943-25.596943H486.360058a25.339943 25.339943 0 0 1 25.596942 25.596943c0 14.332968-6.910984 38.265914-21.329952 38.265913h-319.909278c-14.334968-0.021-17.064962-23.953946-17.064962-38.287913z m20.859953-217.56751h248.709439a32.911926 32.911926 0 0 1 0 63.839856H174.470761a32.911926 32.911926 0 0 1 0.022-63.754856zM149.600818 224.115494a28.859935 28.859935 0 0 1 25.189943-31.994927H678.759624a32.805926 32.805926 0 0 1 0 63.819856H174.812761a28.859935 28.859935 0 0 1-25.190944-31.824929z m0 191.971567a28.901935 28.901935 0 0 1 25.296942-31.994927h354.165202a32.784926 32.784926 0 0 1 0 63.819856h-354.079202a28.901935 28.901935 0 0 1-25.361943-31.973928z" p-id="18222"></path></svg>