<?xml version="1.0" standalone="no"?><!DOCTYPE svg PUBLIC "-//W3C//DTD SVG 1.1//EN" "http://www.w3.org/Graphics/SVG/1.1/DTD/svg11.dtd"><svg t="1593593264654" class="icon" viewBox="0 0 1024 1024" version="1.1" xmlns="http://www.w3.org/2000/svg" p-id="6132" xmlns:xlink="http://www.w3.org/1999/xlink" width="200" height="200"><defs><style type="text/css"></style></defs><path d="M238.92992 512H307.2v68.25984h-68.27008zM375.47008 512h68.25984v68.25984h-68.25984zM443.72992 307.2h-68.25984v-68.27008H307.2V307.2h-68.27008v68.27008H307.2v68.25984h68.27008v-68.25984h68.25984zM512 512h68.27008v68.25984H512zM512 375.47008h68.27008v68.27008H512zM512 238.92992h68.27008V307.2H512zM238.92992 648.54016H307.2V716.8h-68.27008zM375.47008 648.54016h68.25984V716.8h-68.25984zM512 648.54016h68.27008V716.8H512z" p-id="6133"></path><path d="M716.8 307.2V102.4H102.4v819.2h273.07008v-68.27008h68.25984V921.6H921.6V307.2H716.8zM512 853.32992v-68.25984H307.2v68.25984H170.67008V170.67008h477.85984v682.67008H512z m341.32992 0H716.8v-68.25984h68.27008V716.8H716.8v-68.25984h68.27008v-68.28032H716.8V512h68.27008v-68.27008H716.8v-68.27008h136.52992v477.87008z" p-id="6134"></path></svg>